<?xml version="1.0" encoding="UTF-8"?>
<!DOCTYPE svg
PUBLIC "-//W3C//DTD SVG 1.1//EN"
       "http://www.w3.org/Graphics/SVG/1.1/DTD/svg11.dtd">
<svg viewBox="21 -15 1081 417" width="1060px" height="432px" xmlns="http://www.w3.org/2000/svg" version="1.1">
   <line x1="957" y1="169" x2="947" y2="169" style="stroke:#0b0;stroke-width:1;"/>
   <line x1="744" y1="192" x2="734" y2="192" style="stroke:#0b0;stroke-width:1;"/>
   <line x1="947" y1="169" x2="744" y2="192" style="stroke:#0b0;stroke-width:1;"/>
   <line x1="949.5" y1="169" x2="953.03553390593" y2="172.53553390593" style="stroke:#0b0;stroke-width:2;"/>
   <line x1="949.5" y1="169" x2="953.03553390593" y2="165.46446609407" style="stroke:#0b0;stroke-width:2;"/>
   <line x1="739" y1="192" x2="742.53553390593" y2="195.53553390593" style="stroke:#0b0;stroke-width:2;"/>
   <line x1="739" y1="192" x2="742.53553390593" y2="188.46446609407" style="stroke:#0b0;stroke-width:2;"/>
   <line x1="957" y1="149" x2="947" y2="149" style="stroke:#c00;stroke-width:1;"/>
   <line x1="773" y1="31" x2="763" y2="31" style="stroke:#c00;stroke-width:1;"/>
   <line x1="947" y1="149" x2="773" y2="31" style="stroke:#c00;stroke-width:1;"/>
   <line x1="949.5" y1="149" x2="953.03553390593" y2="152.53553390593" style="stroke:#c00;stroke-width:2;"/>
   <line x1="949.5" y1="149" x2="953.03553390593" y2="145.46446609407" style="stroke:#c00;stroke-width:2;"/>
   <line x1="768" y1="31" x2="771.53553390593" y2="34.535533905933" style="stroke:#c00;stroke-width:2;"/>
   <line x1="768" y1="31" x2="771.53553390593" y2="27.464466094067" style="stroke:#c00;stroke-width:2;"/>
   <line x1="309" y1="273" x2="299" y2="273" style="stroke:#333;stroke-width:1;"/>
   <line x1="176" y1="30" x2="166" y2="30" style="stroke:#333;stroke-width:1;"/>
   <line x1="299" y1="273" x2="176" y2="30" style="stroke:#333;stroke-width:1;"/>
   <line x1="301.5" y1="273" x2="305.03553390593" y2="276.53553390593" style="stroke:#333;stroke-width:2;"/>
   <line x1="301.5" y1="273" x2="305.03553390593" y2="269.46446609407" style="stroke:#333;stroke-width:2;"/>
   <line x1="171" y1="30" x2="174.53553390593" y2="33.535533905933" style="stroke:#333;stroke-width:2;"/>
   <line x1="171" y1="30" x2="174.53553390593" y2="26.464466094067" style="stroke:#333;stroke-width:2;"/>
   <line x1="166" y1="210" x2="176" y2="210" style="stroke:#c00;stroke-width:1;"/>
   <line x1="295" y1="352" x2="305" y2="352" style="stroke:#c00;stroke-width:1;"/>
   <line x1="176" y1="210" x2="295" y2="352" style="stroke:#c00;stroke-width:1;"/>
   <line x1="173.5" y1="210" x2="169.96446609407" y2="213.53553390593" style="stroke:#c00;stroke-width:2;"/>
   <line x1="173.5" y1="210" x2="169.96446609407" y2="206.46446609407" style="stroke:#c00;stroke-width:2;"/>
   <line x1="300" y1="352" x2="296.46446609407" y2="355.53553390593" style="stroke:#c00;stroke-width:2;"/>
   <line x1="300" y1="352" x2="296.46446609407" y2="348.46446609407" style="stroke:#c00;stroke-width:2;"/>
   <line x1="313" y1="163" x2="303" y2="163" style="stroke:#b0b;stroke-width:1;"/>
   <line x1="176" y1="30" x2="166" y2="30" style="stroke:#b0b;stroke-width:1;"/>
   <line x1="303" y1="163" x2="176" y2="30" style="stroke:#b0b;stroke-width:1;"/>
   <line x1="305.5" y1="163" x2="309.03553390593" y2="166.53553390593" style="stroke:#b0b;stroke-width:2;"/>
   <line x1="305.5" y1="163" x2="309.03553390593" y2="159.46446609407" style="stroke:#b0b;stroke-width:2;"/>
   <line x1="171" y1="30" x2="174.53553390593" y2="33.535533905933" style="stroke:#b0b;stroke-width:2;"/>
   <line x1="171" y1="30" x2="174.53553390593" y2="26.464466094067" style="stroke:#b0b;stroke-width:2;"/>
   <line x1="734" y1="212" x2="744" y2="212" style="stroke:#333;stroke-width:1;"/>
   <line x1="959" y1="271" x2="969" y2="271" style="stroke:#333;stroke-width:1;"/>
   <line x1="744" y1="212" x2="959" y2="271" style="stroke:#333;stroke-width:1;"/>
   <line x1="741.5" y1="212" x2="737.96446609407" y2="215.53553390593" style="stroke:#333;stroke-width:2;"/>
   <line x1="741.5" y1="212" x2="737.96446609407" y2="208.46446609407" style="stroke:#333;stroke-width:2;"/>
   <line x1="964" y1="271" x2="960.46446609407" y2="274.53553390593" style="stroke:#333;stroke-width:2;"/>
   <line x1="964" y1="271" x2="960.46446609407" y2="267.46446609407" style="stroke:#333;stroke-width:2;"/>
   <line x1="645" y1="51" x2="635" y2="51" style="stroke:#333;stroke-width:1;"/>
   <line x1="176" y1="30" x2="166" y2="30" style="stroke:#333;stroke-width:1;"/>
   <line x1="635" y1="51" x2="176" y2="30" style="stroke:#333;stroke-width:1;"/>
   <line x1="637.5" y1="51" x2="641.03553390593" y2="54.535533905933" style="stroke:#333;stroke-width:2;"/>
   <line x1="637.5" y1="51" x2="641.03553390593" y2="47.464466094067" style="stroke:#333;stroke-width:2;"/>
   <line x1="171" y1="30" x2="174.53553390593" y2="33.535533905933" style="stroke:#333;stroke-width:2;"/>
   <line x1="171" y1="30" x2="174.53553390593" y2="26.464466094067" style="stroke:#333;stroke-width:2;"/>
   <rect width="100" height="20" x="957" y="119" style="fill:#007;stroke:black;"/>
   <text width="100" height="20" x="962" y="133" style="fill:#fff;" font-family="Arial" font-size="16px"> annees</text>
   <rect width="100" height="20" x="957" y="139" style="fill:#aea;stroke:black;"/>
   <text width="100" height="20" x="962" y="153" style="fill:black;" font-family="Arial" font-size="16px">id_inscription</text>
   <rect width="100" height="20" x="957" y="159" style="fill:#aea;stroke:black;"/>
   <text width="100" height="20" x="962" y="173" style="fill:black;" font-family="Arial" font-size="16px">id_etudiant</text>
   <rect width="100" height="20" x="957" y="179" style="fill:none;stroke:black;"/>
   <text width="100" height="20" x="962" y="193" style="fill:black;" font-family="Arial" font-size="16px">annee</text>
   <rect width="111" height="20" x="309" y="203" style="fill:#007;stroke:black;"/>
   <text width="111" height="20" x="314" y="217" style="fill:#fff;" font-family="Arial" font-size="16px"> bulletins</text>
   <rect width="111" height="20" x="309" y="223" style="fill:#aea;stroke:black;"/>
   <text width="111" height="20" x="314" y="237" style="fill:black;" font-family="Arial" font-size="16px">id_bulletin</text>
   <rect width="111" height="20" x="309" y="243" style="fill:none;stroke:black;"/>
   <text width="111" height="20" x="314" y="257" style="fill:black;" font-family="Arial" font-size="16px">lien</text>
   <rect width="111" height="20" x="309" y="263" style="fill:none;stroke:black;"/>
   <text width="111" height="20" x="314" y="277" style="fill:black;" font-family="Arial" font-size="16px">id_candidature</text>
   <rect width="130" height="20" x="36" y="0" style="fill:#007;stroke:black;"/>
   <text width="130" height="20" x="41" y="14" style="fill:#fff;" font-family="Arial" font-size="16px"> candidatures</text>
   <rect width="130" height="20" x="36" y="20" style="fill:#aea;stroke:black;"/>
   <text width="130" height="20" x="41" y="34" style="fill:black;" font-family="Arial" font-size="16px">id_candidature</text>
   <rect width="130" height="20" x="36" y="40" style="fill:none;stroke:black;"/>
   <text width="130" height="20" x="41" y="54" style="fill:black;" font-family="Arial" font-size="16px">nom</text>
   <rect width="130" height="20" x="36" y="60" style="fill:none;stroke:black;"/>
   <text width="130" height="20" x="41" y="74" style="fill:black;" font-family="Arial" font-size="16px">prenom</text>
   <rect width="130" height="20" x="36" y="80" style="fill:none;stroke:black;"/>
   <text width="130" height="20" x="41" y="94" style="fill:black;" font-family="Arial" font-size="16px">tel</text>
   <rect width="130" height="20" x="36" y="100" style="fill:none;stroke:black;"/>
   <text width="130" height="20" x="41" y="114" style="fill:black;" font-family="Arial" font-size="16px">adresse</text>
   <rect width="130" height="20" x="36" y="120" style="fill:none;stroke:black;"/>
   <text width="130" height="20" x="41" y="134" style="fill:black;" font-family="Arial" font-size="16px">email</text>
   <rect width="130" height="20" x="36" y="140" style="fill:none;stroke:black;"/>
   <text width="130" height="20" x="41" y="154" style="fill:black;" font-family="Arial" font-size="16px">date_naissance</text>
   <rect width="130" height="20" x="36" y="160" style="fill:none;stroke:black;"/>
   <text width="130" height="20" x="41" y="174" style="fill:black;" font-family="Arial" font-size="16px">date_candidature</text>
   <rect width="130" height="20" x="36" y="180" style="fill:none;stroke:black;"/>
   <text width="130" height="20" x="41" y="194" style="fill:black;" font-family="Arial" font-size="16px">status</text>
   <rect width="130" height="20" x="36" y="200" style="fill:none;stroke:black;"/>
   <text width="130" height="20" x="41" y="214" style="fill:black;" font-family="Arial" font-size="16px">id_cursus</text>
   <rect width="130" height="20" x="36" y="220" style="fill:none;stroke:black;"/>
   <text width="130" height="20" x="41" y="234" style="fill:black;" font-family="Arial" font-size="16px">nationalite</text>
   <rect width="130" height="20" x="36" y="240" style="fill:none;stroke:black;"/>
   <text width="130" height="20" x="41" y="254" style="fill:black;" font-family="Arial" font-size="16px">sexe</text>
   <rect width="130" height="20" x="36" y="260" style="fill:none;stroke:black;"/>
   <text width="130" height="20" x="41" y="274" style="fill:black;" font-family="Arial" font-size="16px">lieu_naissance</text>
   <rect width="140" height="20" x="305" y="322" style="fill:#007;stroke:black;"/>
   <text width="140" height="20" x="310" y="336" style="fill:#fff;" font-family="Arial" font-size="16px"> cursus</text>
   <rect width="140" height="20" x="305" y="342" style="fill:#aea;stroke:black;"/>
   <text width="140" height="20" x="310" y="356" style="fill:black;" font-family="Arial" font-size="16px">id_cursus</text>
   <rect width="140" height="20" x="305" y="362" style="fill:none;stroke:black;"/>
   <text width="140" height="20" x="310" y="376" style="fill:black;" font-family="Arial" font-size="16px">nom_cursus</text>
   <rect width="140" height="20" x="305" y="382" style="fill:none;stroke:black;"/>
   <text width="140" height="20" x="310" y="396" style="fill:black;" font-family="Arial" font-size="16px">description_cursus</text>
   <rect width="149" height="20" x="313" y="73" style="fill:#007;stroke:black;"/>
   <text width="149" height="20" x="318" y="87" style="fill:#fff;" font-family="Arial" font-size="16px"> diplomes</text>
   <rect width="149" height="20" x="313" y="93" style="fill:#aea;stroke:black;"/>
   <text width="149" height="20" x="318" y="107" style="fill:black;" font-family="Arial" font-size="16px">id_diplome</text>
   <rect width="149" height="20" x="313" y="113" style="fill:none;stroke:black;"/>
   <text width="149" height="20" x="318" y="127" style="fill:black;" font-family="Arial" font-size="16px">nom_diplome</text>
   <rect width="149" height="20" x="313" y="133" style="fill:none;stroke:black;"/>
   <text width="149" height="20" x="318" y="147" style="fill:black;" font-family="Arial" font-size="16px">description_diplome</text>
   <rect width="149" height="20" x="313" y="153" style="fill:none;stroke:black;"/>
   <text width="149" height="20" x="318" y="167" style="fill:black;" font-family="Arial" font-size="16px">id_candidature</text>
   <rect width="84" height="20" x="650" y="162" style="fill:#007;stroke:black;"/>
   <text width="84" height="20" x="655" y="176" style="fill:#fff;" font-family="Arial" font-size="16px"> etudiants</text>
   <rect width="84" height="20" x="650" y="182" style="fill:#aea;stroke:black;"/>
   <text width="84" height="20" x="655" y="196" style="fill:black;" font-family="Arial" font-size="16px">id_etudiant</text>
   <rect width="84" height="20" x="650" y="202" style="fill:none;stroke:black;"/>
   <text width="84" height="20" x="655" y="216" style="fill:black;" font-family="Arial" font-size="16px">id_user</text>
   <rect width="118" height="20" x="645" y="1" style="fill:#007;stroke:black;"/>
   <text width="118" height="20" x="650" y="15" style="fill:#fff;" font-family="Arial" font-size="16px"> inscriptions</text>
   <rect width="118" height="20" x="645" y="21" style="fill:#aea;stroke:black;"/>
   <text width="118" height="20" x="650" y="35" style="fill:black;" font-family="Arial" font-size="16px">id_inscription</text>
   <rect width="118" height="20" x="645" y="41" style="fill:none;stroke:black;"/>
   <text width="118" height="20" x="650" y="55" style="fill:black;" font-family="Arial" font-size="16px">id_candidature</text>
   <rect width="118" height="20" x="645" y="61" style="fill:none;stroke:black;"/>
   <text width="118" height="20" x="650" y="75" style="fill:black;" font-family="Arial" font-size="16px">date_inscription</text>
   <rect width="97" height="20" x="969" y="241" style="fill:#007;stroke:black;"/>
   <text width="97" height="20" x="974" y="255" style="fill:#fff;" font-family="Arial" font-size="16px"> users</text>
   <rect width="97" height="20" x="969" y="261" style="fill:#aea;stroke:black;"/>
   <text width="97" height="20" x="974" y="275" style="fill:black;" font-family="Arial" font-size="16px">id_user</text>
   <rect width="97" height="20" x="969" y="281" style="fill:none;stroke:black;"/>
   <text width="97" height="20" x="974" y="295" style="fill:black;" font-family="Arial" font-size="16px">nom</text>
   <rect width="97" height="20" x="969" y="301" style="fill:none;stroke:black;"/>
   <text width="97" height="20" x="974" y="315" style="fill:black;" font-family="Arial" font-size="16px">email</text>
   <rect width="97" height="20" x="969" y="321" style="fill:none;stroke:black;"/>
   <text width="97" height="20" x="974" y="335" style="fill:black;" font-family="Arial" font-size="16px">motdepasse</text>
   <rect width="97" height="20" x="969" y="341" style="fill:none;stroke:black;"/>
   <text width="97" height="20" x="974" y="355" style="fill:black;" font-family="Arial" font-size="16px">role</text>
</svg>
